<svg id="Group_80441" xmlns="http://www.w3.org/2000/svg" xmlns:xlink="http://www.w3.org/1999/xlink" width="30.386" height="25.329" viewBox="0 0 30.386 25.329" class="w-full h-full"><defs><clipPath id="clip-path"><rect id="Rectangle_11588" width="30.386" height="25.329" fill="none"></rect></clipPath></defs><g id="Group_80441-2" data-name="Group 80441" clip-path="url(#clip-path)"><path id="Path_59336" d="M153.649,65.08q-.08,0-15.219,9.658l2.1,7.023.479-4.443q13.01-11.759,13.023-11.839a.843.843,0,0,0,.013-.107c0-.195-.134-.292-.4-.292" transform="translate(-129.091 -60.69)" fill="#fff"></path><path id="Path_59337" d="M153.649,65.08q-.08,0-15.219,9.658l2.1,7.023.479-4.443q13.01-11.759,13.023-11.839a.843.843,0,0,0,.013-.107c0-.195-.134-.292-.4-.292" transform="translate(-129.091 -60.69)" fill="#fff"></path><path id="Path_59338" d="M30.384,1.091,25.595,24.158a1.383,1.383,0,0,1-1.463,1.171,1.594,1.594,0,0,1-.851-.266L16.2,19.875,12.265,23.6a.943.943,0,0,1-.691.293,1.053,1.053,0,0,1-1.091-.745L7.689,14.74.745,12.585A1.055,1.055,0,0,1,0,11.653a1,1,0,0,1,.718-1.011Q29.213,0,29.373,0a1.055,1.055,0,0,1,.7.293.939.939,0,0,1,.306.8" transform="translate(0 0)" fill="#fff"></path><path id="Path_59339" d="M153.649,65.08q-.08,0-15.219,9.658l2.1,7.023.479-4.443q13.01-11.759,13.023-11.839a.843.843,0,0,0,.013-.107c0-.195-.134-.292-.4-.292" transform="translate(-129.091 -60.69)" fill="#1a1a1a"></path></g></svg>